<svg xmlns="http://www.w3.org/2000/svg" width="200" height="193" viewBox="0 0 200 193" version="1.1"><path d="M 76.633 1.486 C 50.481 6.936, 31.396 20.710, 28.484 36.235 L 27.800 39.877 31.727 39.823 C 33.886 39.793, 37.140 40.608, 38.957 41.635 C 40.774 42.661, 43.215 44.049, 44.381 44.721 C 45.656 45.455, 46.633 45.555, 46.833 44.971 C 47.017 44.437, 50.813 44, 55.269 44 C 62.155 44, 63.711 44.319, 65.635 46.127 C 66.880 47.296, 68.545 48.005, 69.336 47.701 C 70.562 47.231, 70.501 46.168, 68.916 40.454 C 66.846 32.988, 67.150 31.735, 72.023 27.634 C 76.067 24.232, 82.294 22.644, 88.665 23.392 C 96.629 24.326, 97.299 24.768, 96.667 28.666 C 96.332 30.731, 96.872 34.222, 98.064 37.685 C 99.799 42.728, 99.846 43.513, 98.504 44.996 C 97.677 45.910, 97 47.565, 97 48.674 C 97 50.821, 94.118 54, 92.171 54 C 89.648 54, 91.860 57.989, 98.042 64.589 C 102.845 69.717, 107.647 78.114, 109.999 85.500 C 114.805 100.589, 125.207 109.497, 135.719 107.525 C 141.102 106.515, 146.848 100.533, 151.112 91.500 L 154.888 83.500 150.694 82.762 C 148.387 82.355, 143.745 80.668, 140.377 79.012 C 137.010 77.355, 133.747 76, 133.127 76 C 132.507 76, 132 75.492, 132 74.871 C 132 74.250, 130.364 71.931, 128.364 69.718 C 122.624 63.364, 118.295 52.836, 118.075 44.694 C 117.878 37.422, 119.914 28.635, 123.044 23.250 L 124.933 20 113.966 20 C 103.667 20, 103 19.878, 103 18 C 103 15.942, 106.256 12, 107.956 12 C 108.481 12, 110.604 10.851, 112.674 9.446 C 115.298 7.666, 117.203 7.070, 118.968 7.477 C 124.073 8.654, 118.595 6.024, 110.500 3.410 C 100.531 0.191, 86.632 -0.598, 76.633 1.486 M 150.556 28.267 C 148.386 29.496, 145.713 32.039, 144.615 33.920 C 142.561 37.437, 141.330 46.532, 143.053 45.468 C 143.574 45.145, 144.518 45.202, 145.151 45.594 C 145.949 46.087, 145.736 46.720, 144.458 47.655 C 142.672 48.960, 142.679 49.093, 144.657 51.752 C 145.781 53.263, 147.668 54.644, 148.850 54.820 C 150.033 54.995, 151 55.794, 151 56.594 C 151 59.168, 155.004 59.963, 163.997 59.175 C 167.013 58.911, 173.736 52.330, 175.047 48.359 C 179.779 34.021, 163.694 20.825, 150.556 28.267 M 145.597 40.844 C 145.251 41.404, 145.455 42.163, 146.050 42.531 C 147.588 43.481, 148.580 42.180, 147.296 40.896 C 146.578 40.178, 146.019 40.161, 145.597 40.844 M 151.639 40.694 C 150.513 41.820, 150.954 43, 152.500 43 C 153.325 43, 154 42.577, 154 42.059 C 154 40.798, 152.438 39.895, 151.639 40.694 M 156.597 40.844 C 156.251 41.404, 156.455 42.163, 157.050 42.531 C 158.588 43.481, 159.580 42.180, 158.296 40.896 C 157.578 40.178, 157.019 40.161, 156.597 40.844 M 48.035 45.750 C 48.055 46.163, 48.714 47.625, 49.500 49 C 51.363 52.259, 51.363 54, 49.500 54 C 48.452 54, 48 55.056, 48 57.500 C 48 60.674, 47.737 61, 45.174 61 C 43.449 61, 41.429 60.021, 39.987 58.486 L 37.625 55.972 34.312 59.182 C 31.188 62.210, 31 62.787, 31 69.348 L 31 76.304 36.750 70.876 C 43.170 64.815, 50.723 59.164, 56 56.475 C 57.925 55.494, 61.157 53.300, 63.183 51.600 C 66.595 48.737, 66.749 48.380, 65.278 46.755 C 64.021 45.366, 62.054 45, 55.845 45 C 51.530 45, 48.016 45.337, 48.035 45.750 M 148.597 45.844 C 148.251 46.404, 148.455 47.163, 149.050 47.531 C 150.588 48.481, 151.580 47.180, 150.296 45.896 C 149.578 45.178, 149.019 45.161, 148.597 45.844 M 154 46.500 C 154 47.325, 154.450 48, 155 48 C 155.550 48, 156 47.325, 156 46.500 C 156 45.675, 155.550 45, 155 45 C 154.450 45, 154 45.675, 154 46.500 M 145.694 50.639 C 144.895 51.438, 145.798 53, 147.059 53 C 147.577 53, 148 52.325, 148 51.500 C 148 49.954, 146.820 49.513, 145.694 50.639 M 151.150 50.950 C 151.370 51.610, 151.876 52.116, 152.275 52.075 C 153.471 51.951, 153.239 50.580, 151.950 50.150 C 151.290 49.930, 150.930 50.290, 151.150 50.950 M 156.694 50.639 C 155.895 51.438, 156.798 53, 158.059 53 C 158.577 53, 159 52.325, 159 51.500 C 159 49.954, 157.820 49.513, 156.694 50.639 M 27.890 56.206 C 27.240 57.419, 22.741 62.578, 17.890 67.669 C 13.039 72.761, 7.922 79.194, 6.518 81.964 L 3.966 87 6.483 87 C 8.613 87, 9 87.461, 9 90 C 9 92.147, 9.479 93, 10.686 93 C 11.613 93, 13.356 93.925, 14.559 95.055 L 16.747 97.111 19.994 91.305 C 21.780 88.112, 24.762 83.624, 26.621 81.332 C 29.778 77.437, 30 76.678, 30 69.785 C 30 62.555, 30.077 62.331, 33.810 58.686 L 37.619 54.966 39.984 57.483 C 41.285 58.867, 43.395 60, 44.674 60 C 46.592 60, 47 59.473, 47 57 L 47 54 38.035 54 C 29.815 54, 28.972 54.183, 27.890 56.206 M 154 56 C 154 56.550, 154.450 57, 155 57 C 155.550 57, 156 56.550, 156 56 C 156 55.450, 155.550 55, 155 55 C 154.450 55, 154 55.450, 154 56 M 118.639 59.694 C 117.513 60.820, 117.954 62, 119.500 62 C 120.325 62, 121 61.577, 121 61.059 C 121 59.798, 119.438 58.895, 118.639 59.694 M 121 65.500 C 121 66.417, 121.484 67.005, 122.075 66.808 C 122.666 66.611, 123.150 66.023, 123.150 65.500 C 123.150 64.977, 122.666 64.389, 122.075 64.192 C 121.484 63.995, 121 64.583, 121 65.500 M 189.225 70.019 C 183.070 76.880, 174.831 81.384, 165 83.260 L 158.500 84.500 166.500 85 L 174.500 85.500 170.149 88.715 C 167.755 90.483, 164.992 92.185, 164.009 92.497 C 162.905 92.847, 161.781 94.815, 161.070 97.637 C 159.298 104.674, 153.981 114.804, 149.366 119.938 C 141.742 128.417, 130.602 132.577, 119.500 131.089 L 114.500 130.420 114.843 135.164 L 115.187 139.909 121.343 140.262 L 127.500 140.615 120.802 140.807 L 114.105 141 113.802 135.829 L 113.500 130.658 107.217 127.455 C 103.762 125.693, 100.047 123.447, 98.961 122.465 C 96.670 120.391, 96.875 120.253, 94.103 125.750 C 92.924 128.088, 91.513 130, 90.967 130 C 90.421 130, 91.618 133.262, 93.626 137.250 C 95.634 141.238, 97.817 146.058, 98.476 147.962 C 99.550 151.063, 100.076 151.438, 103.527 151.557 C 108.420 151.727, 112.343 156.093, 114.070 163.290 L 115.276 168.320 116.670 165.660 C 117.437 164.197, 118.880 163, 119.877 163 C 122.169 163, 124.993 166.062, 125.022 168.579 C 125.035 169.710, 125.822 168.786, 126.937 166.331 C 128.822 162.178, 132.048 159.516, 134.289 160.263 C 134.937 160.479, 136.658 158.777, 138.115 156.480 C 139.571 154.184, 141.523 152.013, 142.454 151.656 C 145.075 150.650, 147.723 152.631, 149.023 156.570 L 150.206 160.155 152.418 158.077 C 153.634 156.935, 155.543 156, 156.659 156 C 158.894 156, 162 158.899, 162 160.984 C 162 161.966, 162.475 161.880, 163.829 160.655 C 166.138 158.566, 167.652 158.556, 168.809 160.624 C 169.565 161.975, 169.893 161.746, 170.758 159.263 C 172.497 154.277, 176.929 147.990, 179.546 146.797 C 181.659 145.834, 182.383 146.011, 184.510 148.009 C 185.879 149.296, 187 151.035, 187 151.874 C 187 154.843, 189.069 151.378, 191.541 144.269 C 194.353 136.183, 194.795 128.643, 193.534 110.250 C 192.784 99.307, 192.498 98, 190.847 98 C 189.325 98, 189 97.209, 189 93.500 L 189 89 183.500 89 L 178 89 178 98.500 L 178 108 174.500 108 L 171 108 171 114.500 L 171 121 164.500 121 L 158 121 158 133 L 158 145 153.500 145 C 149.667 145, 149 144.704, 149 143 C 149 141.444, 148.333 141, 146 141 C 143.467 141, 143 140.611, 143 138.500 C 143 136.042, 142.867 136, 135 136 C 130.126 136, 127 135.593, 127 134.960 C 127 134.300, 130.017 134.025, 135.250 134.210 C 143.425 134.497, 143.503 134.525, 143.816 137.250 C 144.069 139.441, 144.646 140, 146.660 140 C 148.346 140, 149.361 140.666, 149.710 142 C 150.103 143.503, 151.074 144, 153.617 144 L 157 144 157 132 L 157 120 163.500 120 L 170 120 170 113.500 L 170 107 173.462 107 L 176.925 107 177.212 97.750 L 177.500 88.500 183.500 88.500 L 189.500 88.500 189.807 92.750 C 189.993 95.316, 190.610 97, 191.363 97 C 193.096 97, 195.231 81.466, 194.824 71.819 L 194.500 64.138 189.225 70.019 M 118.192 70.075 C 118.389 70.666, 118.977 71.150, 119.500 71.150 C 120.023 71.150, 120.611 70.666, 120.808 70.075 C 121.005 69.484, 120.417 69, 119.500 69 C 118.583 69, 117.995 69.484, 118.192 70.075 M 124 70.500 C 124 71.325, 124.450 72, 125 72 C 125.550 72, 126 71.325, 126 70.500 C 126 69.675, 125.550 69, 125 69 C 124.450 69, 124 69.675, 124 70.500 M 121 75 C 121 75.550, 121.675 76, 122.500 76 C 123.325 76, 124 75.550, 124 75 C 124 74.450, 123.325 74, 122.500 74 C 121.675 74, 121 74.450, 121 75 M 126 75 C 126 75.550, 126.675 76, 127.500 76 C 128.325 76, 129 75.550, 129 75 C 129 74.450, 128.325 74, 127.500 74 C 126.675 74, 126 74.450, 126 75 M 2.148 92.328 C 0.326 99.562, -0.289 107.474, 0.440 114.285 L 1.133 120.759 6.727 124.612 C 12.346 128.482, 19.319 136.280, 20.507 140.022 C 20.857 141.126, 21.542 141.783, 22.029 141.482 C 22.516 141.181, 21.598 138.859, 19.989 136.322 C 13.912 126.739, 11.958 113.914, 14.933 103.138 C 16.045 99.110, 15.965 98.592, 13.894 96.388 C 12.661 95.074, 10.830 94, 9.826 94 C 8.464 94, 8 93.238, 8 91 C 8 88.507, 7.598 88, 5.619 88 C 3.645 88, 3.051 88.741, 2.148 92.328 M 40.464 110.042 C 37.803 112.987, 37.912 122.761, 40.675 128.967 L 42.664 133.434 44.184 128.967 C 45.094 126.295, 45.391 123.697, 44.923 122.500 C 44.493 121.400, 44.077 118.475, 44 116 C 43.923 113.525, 43.537 110.683, 43.144 109.685 C 42.473 107.982, 42.306 108.005, 40.464 110.042" stroke="none" fill="#3de8cf" fill-rule="evenodd"/><path d="M 161.510 4.990 C 159.935 6.634, 158.869 8.202, 159.141 8.475 C 159.414 8.747, 161.157 7.402, 163.015 5.485 C 164.872 3.568, 165.938 2, 165.383 2 C 164.828 2, 163.085 3.345, 161.510 4.990 M 164.971 10.750 L 158.500 17.500 165.250 11.029 C 171.520 5.018, 172.457 4, 171.721 4 C 171.568 4, 168.530 7.037, 164.971 10.750 M 167.980 16.750 L 158.500 26.500 168.250 17.020 C 173.613 11.806, 178 7.418, 178 7.270 C 178 6.545, 176.785 7.694, 167.980 16.750 M 174.031 18.469 C 169.397 23.127, 165.830 27.163, 166.105 27.438 C 166.379 27.713, 170.621 23.901, 175.531 18.969 C 180.441 14.036, 184.008 10, 183.457 10 C 182.906 10, 178.664 13.811, 174.031 18.469 M 178.978 22.750 L 170.500 31.500 179.250 23.022 C 184.063 18.359, 188 14.422, 188 14.272 C 188 13.544, 186.852 14.623, 178.978 22.750 M 182.978 27.750 L 174.500 36.500 183.250 28.022 C 188.063 23.359, 192 19.422, 192 19.272 C 192 18.544, 190.852 19.623, 182.978 27.750 M 185.341 33.250 C 178.211 40.482, 176.082 43.296, 175.584 46.149 C 175.234 48.155, 174.086 50.892, 173.034 52.230 L 171.120 54.663 179.521 63.021 C 187.581 71.039, 188 71.310, 189.815 69.668 C 192.720 67.038, 196.767 58.993, 198.467 52.465 C 200.644 44.106, 200.511 43, 197.326 43 L 194.651 43 197.072 40.250 L 199.493 37.500 196.442 40.250 C 194.209 42.263, 192.340 43, 189.474 43 L 185.558 43 192.029 36.250 L 198.500 29.500 191.475 36.250 C 185.766 41.736, 183.846 43, 181.225 43 C 179.451 43, 178 42.601, 178 42.114 C 178 41.626, 182.073 37.351, 187.051 32.614 C 192.030 27.876, 195.733 24, 195.282 24 C 194.830 24, 190.357 28.163, 185.341 33.250 M 87.752 33.716 C 85.745 34.020, 84.844 34.856, 84.409 36.816 C 82.970 43.307, 83.020 43.246, 81.082 40.853 C 78.832 38.074, 75.497 38.969, 76.324 42.130 C 76.717 43.636, 76.054 44.925, 73.993 46.659 C 71.014 49.166, 67 58.253, 67 62.490 C 67 69.047, 72.437 73.304, 77.914 71.036 C 80.916 69.792, 81.556 68.584, 84.425 58.750 C 86.082 53.071, 86.148 53, 89.851 53 C 94.077 53, 96 51.590, 96 48.491 C 96 47.331, 96.610 45.548, 97.356 44.528 C 98.504 42.958, 98.475 41.932, 97.165 37.837 C 95.518 32.686, 95.269 32.577, 87.752 33.716 M 153.504 85.987 C 152.681 88.579, 153.114 89.034, 158.695 91.443 L 162.890 93.254 167.275 90.685 C 169.686 89.272, 172.241 87.414, 172.952 86.558 C 174.099 85.175, 173.528 84.999, 167.872 84.989 C 164.368 84.983, 159.859 84.707, 157.854 84.375 C 154.697 83.853, 154.113 84.069, 153.504 85.987 M 177.571 148.250 C 176.173 149.488, 173.731 153.112, 172.143 156.304 C 170.166 160.276, 169.067 161.617, 168.659 160.554 C 167.888 158.543, 166.121 158.580, 163.829 160.655 C 162.272 162.064, 162 162.087, 162 160.810 C 162 158.800, 158.790 156, 156.486 156 C 155.464 156, 153.634 156.935, 152.418 158.077 L 150.206 160.155 149.023 156.570 C 146.793 149.811, 142.167 149.757, 138.036 156.441 C 135.999 159.737, 135.977 160.035, 137.573 162.470 C 138.781 164.315, 139.120 166.402, 138.781 169.922 L 138.312 174.812 141.615 171.309 C 145.419 167.276, 146.932 167.369, 148.431 171.727 L 149.500 174.833 152.500 172.422 C 156.626 169.105, 161.652 169.142, 163.182 172.500 C 164.591 175.592, 164.643 175.591, 169.518 172.366 C 178.176 166.639, 188.213 155.095, 187.224 152 C 186.514 149.774, 182.838 146, 181.381 146 C 180.683 146, 178.968 147.012, 177.571 148.250" stroke="none" fill="#409de2" fill-rule="evenodd"/><path d="M 159 4.155 C 159 6.247, 159.059 6.257, 161 4.500 C 162.100 3.505, 163 2.535, 163 2.345 C 163 2.155, 162.100 2, 161 2 C 159.619 2, 159 2.667, 159 4.155 M 163.095 6.403 C 160.176 9.377, 158.934 11.437, 159.164 12.923 C 159.463 14.859, 160.079 14.508, 164.802 9.714 C 169.118 5.333, 169.849 4.120, 168.733 3.193 C 167.653 2.297, 166.458 2.977, 163.095 6.403 M 165.750 12.450 C 161.376 17.169, 159 20.564, 159 22.096 C 159 24.091, 160.395 23.070, 167.976 15.524 C 174.123 9.406, 176.566 6.343, 175.726 5.810 C 173.547 4.425, 172.608 5.051, 165.750 12.450 M 170.228 16.271 C 165.703 20.820, 162 24.870, 162 25.271 C 162 25.672, 162.797 26, 163.772 26 C 165.848 26, 182.394 9.727, 181.364 8.698 C 179.835 7.168, 178.130 8.328, 170.228 16.271 M 176.133 19.366 C 169.470 26.064, 168.146 27.877, 169.250 28.793 C 170.334 29.692, 172.326 28.209, 178.867 21.634 C 185.530 14.936, 186.854 13.123, 185.750 12.207 C 184.666 11.308, 182.674 12.791, 176.133 19.366 M 180.303 23.229 C 173.159 30.441, 172.272 31.718, 173.377 33.199 C 174.513 34.720, 175.501 34.038, 182.839 26.662 C 190.018 19.445, 190.875 18.212, 189.764 16.692 C 188.622 15.130, 187.688 15.775, 180.303 23.229 M 184.244 28.254 C 178.404 34.125, 176 37.258, 176 38.999 C 176 41.140, 177.102 40.365, 184.569 32.978 C 192.256 25.372, 197.013 19.638, 194.185 21.386 C 193.627 21.730, 193.017 21.552, 192.830 20.990 C 192.642 20.427, 188.779 23.696, 184.244 28.254 M 187.490 34.010 C 180.451 41.090, 179.832 42, 182.052 42 C 185.599 42, 197.606 29.906, 196.328 27.621 C 195.591 26.305, 194.020 27.441, 187.490 34.010 M 193 36.500 C 188.169 41.392, 187.828 42, 189.913 42 C 192.618 42, 200.455 35.399, 198.895 34.435 C 198.328 34.084, 198.105 33.168, 198.400 32.399 C 199.207 30.298, 198.881 30.545, 193 36.500 M 197.500 41 C 197.160 41.550, 197.359 42, 197.941 42 C 198.523 42, 199 41.550, 199 41 C 199 40.450, 198.802 40, 198.559 40 C 198.316 40, 197.840 40.450, 197.500 41 M 66.250 50.134 C 64.463 51.268, 63 52.596, 63 53.084 C 63 53.572, 60.358 55.305, 57.130 56.934 C 45.336 62.888, 30.637 76.305, 23.052 88.041 C 16.597 98.028, 14.645 104.126, 14.568 114.552 C 14.504 123.063, 14.724 124.057, 18.253 131.197 C 20.317 135.373, 24.009 141.018, 26.458 143.743 C 31.840 149.729, 41.695 156.744, 42.876 155.430 C 43.336 154.918, 44.740 151.959, 45.997 148.853 L 48.283 143.206 46.119 140.167 C 41.231 133.302, 37.554 123.691, 37.543 117.753 C 37.534 112.644, 37.880 111.658, 40.653 108.885 L 43.773 105.765 44.458 113.133 C 45.366 122.897, 45.683 123.786, 48.821 125.396 C 56.903 129.542, 85.483 132.285, 90.384 129.385 C 92.396 128.195, 98.117 111.969, 100.128 101.750 C 100.751 98.588, 101.682 96, 102.197 96 C 102.713 96, 102.910 96.787, 102.636 97.750 C 102.362 98.713, 101.608 102.170, 100.960 105.433 C 100.312 108.696, 99.151 113.155, 98.380 115.341 C 97.143 118.845, 97.163 119.523, 98.544 121.049 C 101.429 124.236, 111.453 128.850, 118.193 130.091 C 132.255 132.682, 145.193 126.459, 153.469 113.123 C 156.243 108.653, 161 96.992, 161 94.662 C 161 93.627, 155.184 90, 153.525 90 C 153.301 90, 151.656 92.742, 149.870 96.093 C 144.288 106.565, 137.024 110.312, 127.610 107.575 C 120.241 105.433, 114.295 98.960, 110.526 88.980 C 105.945 76.848, 102.250 70.255, 96.565 64.071 C 93.622 60.870, 90.911 57.294, 90.540 56.125 C 89.216 51.953, 87.178 53.957, 84.467 62.099 C 82.067 69.306, 81.400 70.353, 78.417 71.599 C 73.632 73.599, 72.218 73.372, 68.923 70.077 C 65.301 66.455, 64.978 60.491, 68.059 54.114 C 70.723 48.601, 70.262 47.587, 66.250 50.134 M 10.789 53.741 C 14.248 53.937, 19.648 53.936, 22.789 53.738 C 25.930 53.540, 23.100 53.380, 16.500 53.382 C 9.900 53.384, 7.330 53.546, 10.789 53.741" stroke="none" fill="#152272" fill-rule="evenodd"/><path d="M 159 4.155 C 159 6.247, 159.059 6.257, 161 4.500 C 162.100 3.505, 163 2.535, 163 2.345 C 163 2.155, 162.100 2, 161 2 C 159.619 2, 159 2.667, 159 4.155 M 163.095 6.403 C 160.176 9.377, 158.934 11.437, 159.164 12.923 C 159.463 14.859, 160.079 14.508, 164.802 9.714 C 169.118 5.333, 169.849 4.120, 168.733 3.193 C 167.653 2.297, 166.458 2.977, 163.095 6.403 M 165.750 12.450 C 161.376 17.169, 159 20.564, 159 22.096 C 159 24.091, 160.395 23.070, 167.976 15.524 C 174.123 9.406, 176.566 6.343, 175.726 5.810 C 173.547 4.425, 172.608 5.051, 165.750 12.450 M 170.228 16.271 C 165.703 20.820, 162 24.870, 162 25.271 C 162 25.672, 162.797 26, 163.772 26 C 165.848 26, 182.394 9.727, 181.364 8.698 C 179.835 7.168, 178.130 8.328, 170.228 16.271 M 176.133 19.366 C 169.470 26.064, 168.146 27.877, 169.250 28.793 C 170.334 29.692, 172.326 28.209, 178.867 21.634 C 185.530 14.936, 186.854 13.123, 185.750 12.207 C 184.666 11.308, 182.674 12.791, 176.133 19.366 M 180.303 23.229 C 173.159 30.441, 172.272 31.718, 173.377 33.199 C 174.513 34.720, 175.501 34.038, 182.839 26.662 C 190.018 19.445, 190.875 18.212, 189.764 16.692 C 188.622 15.130, 187.688 15.775, 180.303 23.229 M 184.244 28.254 C 178.404 34.125, 176 37.258, 176 38.999 C 176 41.140, 177.102 40.365, 184.569 32.978 C 192.256 25.372, 197.013 19.638, 194.185 21.386 C 193.627 21.730, 193.017 21.552, 192.830 20.990 C 192.642 20.427, 188.779 23.696, 184.244 28.254 M 187.490 34.010 C 180.451 41.090, 179.832 42, 182.052 42 C 185.599 42, 197.606 29.906, 196.328 27.621 C 195.591 26.305, 194.020 27.441, 187.490 34.010 M 193 36.500 C 188.169 41.392, 187.828 42, 189.913 42 C 192.618 42, 200.455 35.399, 198.895 34.435 C 198.328 34.084, 198.105 33.168, 198.400 32.399 C 199.207 30.298, 198.881 30.545, 193 36.500 M 197.500 41 C 197.160 41.550, 197.359 42, 197.941 42 C 198.523 42, 199 41.550, 199 41 C 199 40.450, 198.802 40, 198.559 40 C 198.316 40, 197.840 40.450, 197.500 41 M 66.250 50.134 C 64.463 51.268, 63 52.596, 63 53.084 C 63 53.572, 60.358 55.305, 57.130 56.934 C 45.336 62.888, 30.637 76.305, 23.052 88.041 C 16.597 98.028, 14.645 104.126, 14.568 114.552 C 14.504 123.063, 14.724 124.057, 18.253 131.197 C 20.317 135.373, 24.009 141.018, 26.458 143.743 C 31.840 149.729, 41.695 156.744, 42.876 155.430 C 43.336 154.918, 44.740 151.959, 45.997 148.853 L 48.283 143.206 46.119 140.167 C 41.231 133.302, 37.554 123.691, 37.543 117.753 C 37.534 112.644, 37.880 111.658, 40.653 108.885 L 43.773 105.765 44.458 113.133 C 45.366 122.897, 45.683 123.786, 48.821 125.396 C 56.903 129.542, 85.483 132.285, 90.384 129.385 C 92.396 128.195, 98.117 111.969, 100.128 101.750 C 100.751 98.588, 101.682 96, 102.197 96 C 102.713 96, 102.910 96.787, 102.636 97.750 C 102.362 98.713, 101.608 102.170, 100.960 105.433 C 100.312 108.696, 99.151 113.155, 98.380 115.341 C 97.143 118.845, 97.163 119.523, 98.544 121.049 C 101.429 124.236, 111.453 128.850, 118.193 130.091 C 132.255 132.682, 145.193 126.459, 153.469 113.123 C 156.243 108.653, 161 96.992, 161 94.662 C 161 93.627, 155.184 90, 153.525 90 C 153.301 90, 151.656 92.742, 149.870 96.093 C 144.288 106.565, 137.024 110.312, 127.610 107.575 C 120.241 105.433, 114.295 98.960, 110.526 88.980 C 105.945 76.848, 102.250 70.255, 96.565 64.071 C 93.622 60.870, 90.911 57.294, 90.540 56.125 C 89.216 51.953, 87.178 53.957, 84.467 62.099 C 82.067 69.306, 81.400 70.353, 78.417 71.599 C 73.632 73.599, 72.218 73.372, 68.923 70.077 C 65.301 66.455, 64.978 60.491, 68.059 54.114 C 70.723 48.601, 70.262 47.587, 66.250 50.134 M 10.789 53.741 C 14.248 53.937, 19.648 53.936, 22.789 53.738 C 25.930 53.540, 23.100 53.380, 16.500 53.382 C 9.900 53.384, 7.330 53.546, 10.789 53.741" stroke="none" fill="#152272" fill-rule="evenodd"/><path d="M 76.633 1.486 C 50.481 6.936, 31.396 20.710, 28.484 36.235 L 27.800 39.877 31.727 39.823 C 33.886 39.793, 37.140 40.608, 38.957 41.635 C 40.774 42.661, 43.215 44.049, 44.381 44.721 C 45.656 45.455, 46.633 45.555, 46.833 44.971 C 47.017 44.437, 50.813 44, 55.269 44 C 62.155 44, 63.711 44.319, 65.635 46.127 C 66.880 47.296, 68.545 48.005, 69.336 47.701 C 70.562 47.231, 70.501 46.168, 68.916 40.454 C 66.846 32.988, 67.150 31.735, 72.023 27.634 C 76.067 24.232, 82.294 22.644, 88.665 23.392 C 96.629 24.326, 97.299 24.768, 96.667 28.666 C 96.332 30.731, 96.872 34.222, 98.064 37.685 C 99.799 42.728, 99.846 43.513, 98.504 44.996 C 97.677 45.910, 97 47.565, 97 48.674 C 97 50.821, 94.118 54, 92.171 54 C 89.648 54, 91.860 57.989, 98.042 64.589 C 102.845 69.717, 107.647 78.114, 109.999 85.500 C 114.805 100.589, 125.207 109.497, 135.719 107.525 C 141.102 106.515, 146.848 100.533, 151.112 91.500 L 154.888 83.500 150.694 82.762 C 148.387 82.355, 143.745 80.668, 140.377 79.012 C 137.010 77.355, 133.747 76, 133.127 76 C 132.507 76, 132 75.492, 132 74.871 C 132 74.250, 130.364 71.931, 128.364 69.718 C 122.624 63.364, 118.295 52.836, 118.075 44.694 C 117.878 37.422, 119.914 28.635, 123.044 23.250 L 124.933 20 113.966 20 C 103.667 20, 103 19.878, 103 18 C 103 15.942, 106.256 12, 107.956 12 C 108.481 12, 110.604 10.851, 112.674 9.446 C 115.298 7.666, 117.203 7.070, 118.968 7.477 C 124.073 8.654, 118.595 6.024, 110.500 3.410 C 100.531 0.191, 86.632 -0.598, 76.633 1.486 M 150.556 28.267 C 148.386 29.496, 145.713 32.039, 144.615 33.920 C 142.561 37.437, 141.330 46.532, 143.053 45.468 C 143.574 45.145, 144.518 45.202, 145.151 45.594 C 145.949 46.087, 145.736 46.720, 144.458 47.655 C 142.672 48.960, 142.679 49.093, 144.657 51.752 C 145.781 53.263, 147.668 54.644, 148.850 54.820 C 150.033 54.995, 151 55.794, 151 56.594 C 151 59.168, 155.004 59.963, 163.997 59.175 C 167.013 58.911, 173.736 52.330, 175.047 48.359 C 179.779 34.021, 163.694 20.825, 150.556 28.267 M 145.597 40.844 C 145.251 41.404, 145.455 42.163, 146.050 42.531 C 147.588 43.481, 148.580 42.180, 147.296 40.896 C 146.578 40.178, 146.019 40.161, 145.597 40.844 M 151.639 40.694 C 150.513 41.820, 150.954 43, 152.500 43 C 153.325 43, 154 42.577, 154 42.059 C 154 40.798, 152.438 39.895, 151.639 40.694 M 156.597 40.844 C 156.251 41.404, 156.455 42.163, 157.050 42.531 C 158.588 43.481, 159.580 42.180, 158.296 40.896 C 157.578 40.178, 157.019 40.161, 156.597 40.844 M 48.035 45.750 C 48.055 46.163, 48.714 47.625, 49.500 49 C 51.363 52.259, 51.363 54, 49.500 54 C 48.452 54, 48 55.056, 48 57.500 C 48 60.674, 47.737 61, 45.174 61 C 43.449 61, 41.429 60.021, 39.987 58.486 L 37.625 55.972 34.312 59.182 C 31.188 62.210, 31 62.787, 31 69.348 L 31 76.304 36.750 70.876 C 43.170 64.815, 50.723 59.164, 56 56.475 C 57.925 55.494, 61.157 53.300, 63.183 51.600 C 66.595 48.737, 66.749 48.380, 65.278 46.755 C 64.021 45.366, 62.054 45, 55.845 45 C 51.530 45, 48.016 45.337, 48.035 45.750 M 148.597 45.844 C 148.251 46.404, 148.455 47.163, 149.050 47.531 C 150.588 48.481, 151.580 47.180, 150.296 45.896 C 149.578 45.178, 149.019 45.161, 148.597 45.844 M 154 46.500 C 154 47.325, 154.450 48, 155 48 C 155.550 48, 156 47.325, 156 46.500 C 156 45.675, 155.550 45, 155 45 C 154.450 45, 154 45.675, 154 46.500 M 145.694 50.639 C 144.895 51.438, 145.798 53, 147.059 53 C 147.577 53, 148 52.325, 148 51.500 C 148 49.954, 146.820 49.513, 145.694 50.639 M 151.150 50.950 C 151.370 51.610, 151.876 52.116, 152.275 52.075 C 153.471 51.951, 153.239 50.580, 151.950 50.150 C 151.290 49.930, 150.930 50.290, 151.150 50.950 M 156.694 50.639 C 155.895 51.438, 156.798 53, 158.059 53 C 158.577 53, 159 52.325, 159 51.500 C 159 49.954, 157.820 49.513, 156.694 50.639 M 27.890 56.206 C 27.240 57.419, 22.741 62.578, 17.890 67.669 C 13.039 72.761, 7.922 79.194, 6.518 81.964 L 3.966 87 6.483 87 C 8.613 87, 9 87.461, 9 90 C 9 92.147, 9.479 93, 10.686 93 C 11.613 93, 13.356 93.925, 14.559 95.055 L 16.747 97.111 19.994 91.305 C 21.780 88.112, 24.762 83.624, 26.621 81.332 C 29.778 77.437, 30 76.678, 30 69.785 C 30 62.555, 30.077 62.331, 33.810 58.686 L 37.619 54.966 39.984 57.483 C 41.285 58.867, 43.395 60, 44.674 60 C 46.592 60, 47 59.473, 47 57 L 47 54 38.035 54 C 29.815 54, 28.972 54.183, 27.890 56.206 M 154 56 C 154 56.550, 154.450 57, 155 57 C 155.550 57, 156 56.550, 156 56 C 156 55.450, 155.550 55, 155 55 C 154.450 55, 154 55.450, 154 56 M 118.639 59.694 C 117.513 60.820, 117.954 62, 119.500 62 C 120.325 62, 121 61.577, 121 61.059 C 121 59.798, 119.438 58.895, 118.639 59.694 M 121 65.500 C 121 66.417, 121.484 67.005, 122.075 66.808 C 122.666 66.611, 123.150 66.023, 123.150 65.500 C 123.150 64.977, 122.666 64.389, 122.075 64.192 C 121.484 63.995, 121 64.583, 121 65.500 M 189.225 70.019 C 183.070 76.880, 174.831 81.384, 165 83.260 L 158.500 84.500 166.500 85 L 174.500 85.500 170.149 88.715 C 167.755 90.483, 164.992 92.185, 164.009 92.497 C 162.905 92.847, 161.781 94.815, 161.070 97.637 C 159.298 104.674, 153.981 114.804, 149.366 119.938 C 141.742 128.417, 130.602 132.577, 119.500 131.089 L 114.500 130.420 114.843 135.164 L 115.187 139.909 121.343 140.262 L 127.500 140.615 120.802 140.807 L 114.105 141 113.802 135.829 L 113.500 130.658 107.217 127.455 C 103.762 125.693, 100.047 123.447, 98.961 122.465 C 96.670 120.391, 96.875 120.253, 94.103 125.750 C 92.924 128.088, 91.513 130, 90.967 130 C 90.421 130, 91.618 133.262, 93.626 137.250 C 95.634 141.238, 97.817 146.058, 98.476 147.962 C 99.550 151.063, 100.076 151.438, 103.527 151.557 C 108.420 151.727, 112.343 156.093, 114.070 163.290 L 115.276 168.320 116.670 165.660 C 117.437 164.197, 118.880 163, 119.877 163 C 122.169 163, 124.993 166.062, 125.022 168.579 C 125.035 169.710, 125.822 168.786, 126.937 166.331 C 128.822 162.178, 132.048 159.516, 134.289 160.263 C 134.937 160.479, 136.658 158.777, 138.115 156.480 C 139.571 154.184, 141.523 152.013, 142.454 151.656 C 145.075 150.650, 147.723 152.631, 149.023 156.570 L 150.206 160.155 152.418 158.077 C 153.634 156.935, 155.543 156, 156.659 156 C 158.894 156, 162 158.899, 162 160.984 C 162 161.966, 162.475 161.880, 163.829 160.655 C 166.138 158.566, 167.652 158.556, 168.809 160.624 C 169.565 161.975, 169.893 161.746, 170.758 159.263 C 172.497 154.277, 176.929 147.990, 179.546 146.797 C 181.659 145.834, 182.383 146.011, 184.510 148.009 C 185.879 149.296, 187 151.035, 187 151.874 C 187 154.843, 189.069 151.378, 191.541 144.269 C 194.353 136.183, 194.795 128.643, 193.534 110.250 C 192.784 99.307, 192.498 98, 190.847 98 C 189.325 98, 189 97.209, 189 93.500 L 189 89 183.500 89 L 178 89 178 98.500 L 178 108 174.500 108 L 171 108 171 114.500 L 171 121 164.500 121 L 158 121 158 133 L 158 145 153.500 145 C 149.667 145, 149 144.704, 149 143 C 149 141.444, 148.333 141, 146 141 C 143.467 141, 143 140.611, 143 138.500 C 143 136.042, 142.867 136, 135 136 C 130.126 136, 127 135.593, 127 134.960 C 127 134.300, 130.017 134.025, 135.250 134.210 C 143.425 134.497, 143.503 134.525, 143.816 137.250 C 144.069 139.441, 144.646 140, 146.660 140 C 148.346 140, 149.361 140.666, 149.710 142 C 150.103 143.503, 151.074 144, 153.617 144 L 157 144 157 132 L 157 120 163.500 120 L 170 120 170 113.500 L 170 107 173.462 107 L 176.925 107 177.212 97.750 L 177.500 88.500 183.500 88.500 L 189.500 88.500 189.807 92.750 C 189.993 95.316, 190.610 97, 191.363 97 C 193.096 97, 195.231 81.466, 194.824 71.819 L 194.500 64.138 189.225 70.019 M 118.192 70.075 C 118.389 70.666, 118.977 71.150, 119.500 71.150 C 120.023 71.150, 120.611 70.666, 120.808 70.075 C 121.005 69.484, 120.417 69, 119.500 69 C 118.583 69, 117.995 69.484, 118.192 70.075 M 124 70.500 C 124 71.325, 124.450 72, 125 72 C 125.550 72, 126 71.325, 126 70.500 C 126 69.675, 125.550 69, 125 69 C 124.450 69, 124 69.675, 124 70.500 M 121 75 C 121 75.550, 121.675 76, 122.500 76 C 123.325 76, 124 75.550, 124 75 C 124 74.450, 123.325 74, 122.500 74 C 121.675 74, 121 74.450, 121 75 M 126 75 C 126 75.550, 126.675 76, 127.500 76 C 128.325 76, 129 75.550, 129 75 C 129 74.450, 128.325 74, 127.500 74 C 126.675 74, 126 74.450, 126 75 M 2.148 92.328 C 0.326 99.562, -0.289 107.474, 0.440 114.285 L 1.133 120.759 6.727 124.612 C 12.346 128.482, 19.319 136.280, 20.507 140.022 C 20.857 141.126, 21.542 141.783, 22.029 141.482 C 22.516 141.181, 21.598 138.859, 19.989 136.322 C 13.912 126.739, 11.958 113.914, 14.933 103.138 C 16.045 99.110, 15.965 98.592, 13.894 96.388 C 12.661 95.074, 10.830 94, 9.826 94 C 8.464 94, 8 93.238, 8 91 C 8 88.507, 7.598 88, 5.619 88 C 3.645 88, 3.051 88.741, 2.148 92.328 M 40.464 110.042 C 37.803 112.987, 37.912 122.761, 40.675 128.967 L 42.664 133.434 44.184 128.967 C 45.094 126.295, 45.391 123.697, 44.923 122.500 C 44.493 121.400, 44.077 118.475, 44 116 C 43.923 113.525, 43.537 110.683, 43.144 109.685 C 42.473 107.982, 42.306 108.005, 40.464 110.042" stroke="none" fill="#3de8cf" fill-rule="evenodd"/><path d="M 156.813 1.683 C 157.534 1.972, 158.397 1.936, 158.729 1.604 C 159.061 1.272, 158.471 1.036, 157.417 1.079 C 156.252 1.127, 156.015 1.364, 156.813 1.683 M 149.813 2.683 C 150.534 2.972, 151.397 2.936, 151.729 2.604 C 152.061 2.272, 151.471 2.036, 150.417 2.079 C 149.252 2.127, 149.015 2.364, 149.813 2.683 M 133.200 10.200 C 131.716 11.684, 131.630 14, 133.059 14 C 133.641 14, 133.828 13.530, 133.473 12.956 C 133.118 12.382, 133.372 11.257, 134.036 10.456 C 135.493 8.701, 134.885 8.515, 133.200 10.200 M 127.733 12.124 C 128.412 12.808, 129.219 13.115, 129.526 12.807 C 129.834 12.499, 129.279 11.940, 128.293 11.564 C 126.868 11.022, 126.753 11.136, 127.733 12.124 M 103 19 C 103 20.149, 118.743 20.177, 132.500 19.053 C 140.210 18.422, 138.742 18.294, 122.250 18.158 C 109.978 18.057, 103 18.362, 103 19 M 170.500 31 C 171.495 32.100, 172.535 33, 172.810 33 C 173.085 33, 172.495 32.100, 171.500 31 C 170.505 29.900, 169.465 29, 169.190 29 C 168.915 29, 169.505 29.900, 170.500 31 M 32 40.031 C 32 40.564, 32.675 41, 33.500 41 C 34.325 41, 35 40.823, 35 40.607 C 35 40.391, 34.325 39.955, 33.500 39.638 C 32.675 39.322, 32 39.499, 32 40.031 M 40 42.378 C 40 42.585, 40.788 43.373, 41.750 44.128 C 43.336 45.371, 43.371 45.336, 42.128 43.750 C 40.821 42.084, 40 41.555, 40 42.378 M 70.613 48.183 C 70.902 48.650, 71.557 48.774, 72.069 48.457 C 73.377 47.649, 73.230 47.333, 71.544 47.333 C 70.743 47.333, 70.324 47.716, 70.613 48.183 M 61.924 52.750 L 59.500 55.500 62.250 53.076 C 64.820 50.810, 65.459 50, 64.674 50 C 64.495 50, 63.258 51.237, 61.924 52.750 M 86.655 53.750 C 86.400 54.163, 87.230 54.500, 88.500 54.500 C 89.770 54.500, 90.600 54.163, 90.345 53.750 C 90.091 53.337, 89.260 53, 88.500 53 C 87.740 53, 86.909 53.337, 86.655 53.750 M 14.405 70.250 L 12.500 72.500 14.750 70.595 C 15.988 69.547, 17 68.535, 17 68.345 C 17 67.545, 16.195 68.136, 14.405 70.250 M 68 68.941 C 68 69.459, 68.445 70.157, 68.989 70.493 C 69.555 70.843, 69.723 70.442, 69.382 69.552 C 68.717 67.820, 68 67.503, 68 68.941 M 117 100.378 C 117 100.585, 117.787 101.373, 118.750 102.128 C 120.336 103.371, 120.371 103.336, 119.128 101.750 C 117.821 100.084, 117 99.555, 117 100.378 M 143.924 102.750 L 141.500 105.500 144.250 103.076 C 146.820 100.810, 147.459 100, 146.674 100 C 146.495 100, 145.258 101.237, 143.924 102.750 M 40.872 108.750 C 39.644 110.317, 39.674 110.364, 41.166 109.197 C 42.579 108.093, 42.904 108.169, 43.300 109.697 C 43.669 111.119, 43.793 111.024, 43.884 109.250 C 44.023 106.557, 42.757 106.347, 40.872 108.750 M 13.232 115 C 13.232 116.925, 13.438 117.713, 13.689 116.750 C 13.941 115.787, 13.941 114.213, 13.689 113.250 C 13.438 112.287, 13.232 113.075, 13.232 115 M 44.079 119.583 C 44.127 120.748, 44.364 120.985, 44.683 120.188 C 44.972 119.466, 44.936 118.603, 44.604 118.271 C 44.272 117.939, 44.036 118.529, 44.079 119.583 M 95.500 120 C 95.160 120.550, 95.359 121, 95.941 121 C 96.523 121, 97 120.550, 97 120 C 97 119.450, 96.802 119, 96.559 119 C 96.316 119, 95.840 119.450, 95.500 120 M 45.813 125.683 C 46.534 125.972, 47.397 125.936, 47.729 125.604 C 48.061 125.272, 47.471 125.036, 46.417 125.079 C 45.252 125.127, 45.015 125.364, 45.813 125.683 M 65.813 130.683 C 66.534 130.972, 67.397 130.936, 67.729 130.604 C 68.061 130.272, 67.471 130.036, 66.417 130.079 C 65.252 130.127, 65.015 130.364, 65.813 130.683 M 123.813 131.683 C 124.534 131.972, 125.397 131.936, 125.729 131.604 C 126.061 131.272, 125.471 131.036, 124.417 131.079 C 123.252 131.127, 123.015 131.364, 123.813 131.683 M 24 142.378 C 24 142.585, 24.788 143.373, 25.750 144.128 C 27.336 145.371, 27.371 145.336, 26.128 143.750 C 24.821 142.084, 24 141.555, 24 142.378 M 12 143.378 C 12 143.585, 12.787 144.373, 13.750 145.128 C 15.336 146.371, 15.371 146.336, 14.128 144.750 C 12.821 143.084, 12 142.555, 12 143.378 M 38 156.500 C 38 157.325, 38.177 158, 38.393 158 C 38.609 158, 39.045 157.325, 39.362 156.500 C 39.678 155.675, 39.501 155, 38.969 155 C 38.436 155, 38 155.675, 38 156.500 M 38 162.441 C 38 163.234, 38.408 164.134, 38.907 164.442 C 39.405 164.751, 39.578 164.102, 39.290 163.001 C 38.679 160.666, 38 160.371, 38 162.441 M 177.924 165.750 L 175.500 168.500 178.250 166.076 C 179.762 164.742, 181 163.505, 181 163.326 C 181 162.541, 180.190 163.180, 177.924 165.750 M 70.250 172.689 C 71.213 172.941, 72.787 172.941, 73.750 172.689 C 74.713 172.438, 73.925 172.232, 72 172.232 C 70.075 172.232, 69.287 172.438, 70.250 172.689 M 126.250 183.728 C 128.313 183.944, 131.688 183.944, 133.750 183.728 C 135.813 183.513, 134.125 183.336, 130 183.336 C 125.875 183.336, 124.188 183.513, 126.250 183.728" stroke="none" fill="#489fb2" fill-rule="evenodd"/><path d="M 114 10.062 C 105.469 13.969, 104.513 14.575, 104.184 16.284 C 103.881 17.855, 105.403 18, 122.149 18 C 139 18, 140.269 17.877, 138.221 16.442 C 136.997 15.585, 135.598 15.130, 135.112 15.431 C 134.625 15.732, 133.671 15.308, 132.991 14.489 C 132.311 13.670, 131.088 13, 130.272 13 C 129.456 13, 127.452 11.875, 125.818 10.500 C 122.208 7.462, 119.867 7.376, 114 10.062 M 74.454 26.445 C 68.178 30.207, 67.405 32.450, 69.474 40.892 L 71.201 47.942 73.569 46.221 C 75.047 45.147, 75.949 43.466, 75.969 41.750 C 75.994 39.507, 76.452 39, 78.450 39 C 79.798 39, 81.312 39.735, 81.814 40.632 C 82.532 41.915, 82.884 41.433, 83.456 38.385 C 84.309 33.839, 85.277 33.041, 90 33 C 94.519 32.960, 95.601 32.183, 96.424 28.385 C 97.052 25.489, 96.876 25.225, 93.925 24.635 C 86.691 23.188, 78.637 23.937, 74.454 26.445 M 23.595 43.500 C 22.111 44.875, 20.345 46, 19.671 46 C 18.997 46, 17.444 46.701, 16.221 47.558 C 14.997 48.415, 13.594 48.867, 13.102 48.563 C 12.611 48.259, 11.149 48.893, 9.854 49.972 C 7.500 51.933, 7.504 51.933, 28.750 51.967 C 45.900 51.994, 50 51.741, 50 50.655 C 50 48.890, 46.907 46.136, 44.448 45.712 C 43.376 45.528, 40.925 44.394, 39 43.192 C 33.993 40.067, 27.151 40.204, 23.595 43.500 M 3.010 124.250 C 3.038 127.890, 11.028 141.588, 16.279 147 C 24.531 155.505, 34.913 162.790, 36.970 161.518 C 37.537 161.168, 37.992 159.671, 37.982 158.191 C 37.968 156.127, 36.210 153.901, 30.432 148.633 C 26.290 144.856, 22.623 142.043, 22.285 142.382 C 21.946 142.720, 20.417 140.805, 18.886 138.125 C 16.342 133.670, 5.699 123, 3.800 123 C 3.360 123, 3.004 123.563, 3.010 124.250 M 101.311 154.750 C 101.607 156.262, 102.896 162.535, 104.175 168.689 L 106.500 179.878 111 181.038 C 117.856 182.807, 134.640 183.381, 142.694 182.123 C 150.199 180.951, 164 176.333, 164 174.995 C 164 174.570, 163.176 173.204, 162.169 171.960 C 159.846 169.092, 156.461 169.778, 151.518 174.118 L 148 177.207 148 173.572 C 148 168.234, 145.514 167.772, 141.333 172.334 C 139.485 174.350, 137.867 176.001, 137.737 176.002 C 137.606 176.003, 137.653 173.286, 137.841 169.964 C 138.216 163.320, 137.101 161, 133.533 161 C 130.718 161, 128.396 163.553, 126.666 168.550 L 125.310 172.467 124.612 168.746 C 123.747 164.136, 121.177 162.488, 118.155 164.604 C 116.970 165.434, 116 166.961, 116 167.998 C 116 169.034, 115.550 170.160, 115 170.500 C 114.408 170.866, 114 169.727, 114 167.708 C 114 159.690, 108.957 152, 103.699 152 C 101.043 152, 100.823 152.254, 101.311 154.750" stroke="none" fill="#ffffff" fill-rule="evenodd"/><path d="M 80.813 0.683 C 81.534 0.972, 82.397 0.936, 82.729 0.604 C 83.061 0.272, 82.471 0.036, 81.417 0.079 C 80.252 0.127, 80.015 0.364, 80.813 0.683 M 165.473 11.250 L 158.500 18.500 165.750 11.527 C 172.484 5.050, 173.457 4, 172.723 4 C 172.571 4, 169.308 7.262, 165.473 11.250 M 167.624 15.876 C 162.765 20.757, 159.213 25.014, 159.732 25.334 C 160.251 25.655, 162.414 24.136, 164.540 21.959 C 166.666 19.781, 167.992 18, 167.487 18 C 166.982 18, 169.013 15.525, 172 12.500 C 174.987 9.475, 177.213 7, 176.945 7 C 176.677 7, 172.483 10.994, 167.624 15.876 M 110.872 10.750 C 109.629 12.336, 109.664 12.371, 111.250 11.128 C 112.916 9.821, 113.445 9, 112.622 9 C 112.415 9, 111.627 9.787, 110.872 10.750 M 182 18.500 C 179.013 21.525, 176.979 24, 177.480 24 C 177.982 24, 176.848 25.688, 174.961 27.750 C 173.074 29.813, 175.161 27.985, 179.598 23.689 C 184.036 19.393, 187.667 15.231, 187.667 14.439 C 187.667 13.648, 187.614 13, 187.549 13 C 187.485 13, 184.987 15.475, 182 18.500 M 182 19.500 C 179.571 21.975, 177.809 24, 178.084 24 C 178.359 24, 180.571 21.975, 183 19.500 C 185.429 17.025, 187.191 15, 186.916 15 C 186.641 15, 184.429 17.025, 182 19.500 M 183.020 26.381 L 174.539 35.500 183.072 27.219 C 187.765 22.664, 191.942 19.276, 192.355 19.688 C 192.768 20.101, 192.809 19.665, 192.446 18.720 C 192.083 17.774, 191.722 17.059, 191.643 17.131 C 191.564 17.203, 187.684 21.366, 183.020 26.381 M 162.946 21.750 L 159.500 25.500 163.250 22.054 C 165.313 20.158, 167 18.471, 167 18.304 C 167 17.540, 166.154 18.260, 162.946 21.750 M 185 34.500 C 180.903 38.625, 177.775 42, 178.050 42 C 178.325 42, 181.903 38.625, 186 34.500 C 190.097 30.375, 193.225 27, 192.950 27 C 192.675 27, 189.097 30.375, 185 34.500 M 190.565 35.935 C 186.780 39.749, 184.442 42.758, 185.371 42.622 C 187.585 42.297, 197.667 32.316, 197.667 30.449 C 197.667 29.652, 197.617 29, 197.557 29 C 197.496 29, 194.350 32.121, 190.565 35.935 M 190.966 36.750 L 185.500 42.500 191.250 37.034 C 196.592 31.956, 197.458 31, 196.716 31 C 196.560 31, 193.972 33.587, 190.966 36.750 M 195.660 39.833 C 193.722 41.856, 193.382 42.667, 194.473 42.667 C 195.313 42.667, 195.774 42.441, 195.498 42.164 C 194.635 41.302, 198.211 38.013, 199.288 38.678 C 199.873 39.040, 200.004 38.816, 199.595 38.155 C 198.655 36.632, 198.777 36.580, 195.660 39.833 M 39.500 43 C 40.495 44.100, 41.535 45, 41.810 45 C 42.085 45, 41.495 44.100, 40.500 43 C 39.505 41.900, 38.465 41, 38.190 41 C 37.915 41, 38.505 41.900, 39.500 43 M 34.250 53.739 C 37.412 53.937, 42.587 53.937, 45.750 53.739 C 48.912 53.541, 46.325 53.378, 40 53.378 C 33.675 53.378, 31.087 53.541, 34.250 53.739 M 67.564 55.707 C 67.022 57.132, 67.136 57.247, 68.124 56.267 C 68.808 55.588, 69.115 54.781, 68.807 54.474 C 68.499 54.166, 67.940 54.721, 67.564 55.707 M 97 64.500 C 98.866 66.425, 100.617 68, 100.892 68 C 101.167 68, 99.866 66.425, 98 64.500 C 96.134 62.575, 94.383 61, 94.108 61 C 93.833 61, 95.134 62.575, 97 64.500 M 17.872 66.750 C 16.629 68.336, 16.664 68.371, 18.250 67.128 C 19.212 66.373, 20 65.585, 20 65.378 C 20 64.555, 19.179 65.084, 17.872 66.750 M 37.872 69.750 C 36.629 71.336, 36.664 71.371, 38.250 70.128 C 39.916 68.821, 40.445 68, 39.622 68 C 39.415 68, 38.627 68.787, 37.872 69.750 M 195.328 74.500 C 195.333 78.350, 195.513 79.802, 195.730 77.728 C 195.946 75.653, 195.943 72.503, 195.722 70.728 C 195.501 68.952, 195.324 70.650, 195.328 74.500 M 28.872 78.750 C 27.629 80.336, 27.664 80.371, 29.250 79.128 C 30.212 78.373, 31 77.585, 31 77.378 C 31 76.555, 30.179 77.084, 28.872 78.750 M 193.079 92.583 C 193.127 93.748, 193.364 93.985, 193.683 93.188 C 193.972 92.466, 193.936 91.603, 193.604 91.271 C 193.272 90.939, 193.036 91.529, 193.079 92.583 M 160.564 93.293 C 160.940 94.279, 161.499 94.834, 161.807 94.526 C 162.115 94.219, 161.808 93.412, 161.124 92.733 C 160.136 91.753, 160.022 91.868, 160.564 93.293 M 100.500 102 C 100.840 102.550, 101.316 103, 101.559 103 C 101.802 103, 102 102.550, 102 102 C 102 101.450, 101.523 101, 100.941 101 C 100.359 101, 100.160 101.450, 100.500 102 M 44.079 116.583 C 44.127 117.748, 44.364 117.985, 44.683 117.188 C 44.972 116.466, 44.936 115.603, 44.604 115.271 C 44.272 114.939, 44.036 115.529, 44.079 116.583 M 37.158 118 C 37.158 119.375, 37.385 119.938, 37.662 119.250 C 37.940 118.563, 37.940 117.438, 37.662 116.750 C 37.385 116.063, 37.158 116.625, 37.158 118 M 194.158 120 C 194.158 121.375, 194.385 121.938, 194.662 121.250 C 194.940 120.563, 194.940 119.438, 194.662 118.750 C 194.385 118.063, 194.158 118.625, 194.158 120 M 146.924 121.750 L 144.500 124.500 147.250 122.076 C 148.762 120.742, 150 119.505, 150 119.326 C 150 118.541, 149.190 119.180, 146.924 121.750 M 194.079 132.583 C 194.127 133.748, 194.364 133.985, 194.683 133.188 C 194.972 132.466, 194.936 131.603, 194.604 131.271 C 194.272 130.939, 194.036 131.529, 194.079 132.583 M 42.500 133 C 42.160 133.550, 42.359 134, 42.941 134 C 43.523 134, 44 133.550, 44 133 C 44 132.450, 43.802 132, 43.559 132 C 43.316 132, 42.840 132.450, 42.500 133 M 47.613 142.183 C 47.902 142.650, 48.557 142.774, 49.069 142.457 C 50.377 141.649, 50.230 141.333, 48.544 141.333 C 47.743 141.333, 47.324 141.716, 47.613 142.183 M 27 145.378 C 27 145.585, 27.788 146.373, 28.750 147.128 C 30.336 148.371, 30.371 148.336, 29.128 146.750 C 27.821 145.084, 27 144.555, 27 145.378 M 38.079 159.583 C 38.127 160.748, 38.364 160.985, 38.683 160.188 C 38.972 159.466, 38.936 158.603, 38.604 158.271 C 38.272 157.939, 38.036 158.529, 38.079 159.583" stroke="none" fill="#2c65af" fill-rule="evenodd"/><path d="M 160.847 1.718 L 163.194 2.165 160.847 4.832 L 158.500 7.500 161.219 5.105 C 164.233 2.450, 164.030 0.929, 160.691 1.136 C 158.601 1.266, 158.608 1.293, 160.847 1.718 M 162.453 6.250 L 158.500 10.500 162.750 6.547 C 165.088 4.373, 167 2.460, 167 2.297 C 167 1.540, 166.129 2.298, 162.453 6.250 M 169.527 3.860 C 169.817 4.150, 167.455 7.113, 164.277 10.444 L 158.501 16.500 165.250 10.029 C 168.963 6.470, 172 3.507, 172 3.446 C 172 3.384, 171.325 3.333, 170.500 3.333 C 169.675 3.333, 169.237 3.570, 169.527 3.860 M 164.469 13.250 L 158.500 19.500 164.750 13.531 C 168.188 10.249, 171 7.436, 171 7.281 C 171 6.542, 170.013 7.444, 164.469 13.250 M 172.966 12.750 L 167.500 18.500 173.171 13.113 C 177.035 9.441, 179.361 7.924, 180.473 8.351 C 181.425 8.717, 181.850 8.566, 181.493 7.989 C 180.276 6.019, 178.332 7.105, 172.966 12.750 M 172.978 18.750 L 164.500 27.500 173.250 19.022 C 178.063 14.359, 182 10.422, 182 10.272 C 182 9.544, 180.852 10.623, 172.978 18.750 M 174.978 19.750 L 166.500 28.500 175.250 20.022 C 180.063 15.359, 184 11.422, 184 11.272 C 184 10.544, 182.852 11.623, 174.978 19.750 M 189.564 16.293 C 189.940 17.279, 190.499 17.834, 190.807 17.526 C 191.115 17.219, 190.808 16.412, 190.124 15.733 C 189.136 14.753, 189.022 14.868, 189.564 16.293 M 183.031 28.469 C 178.397 33.127, 174.807 37.070, 175.053 37.230 C 175.299 37.390, 179.297 33.579, 183.938 28.760 C 188.580 23.942, 192.170 20, 191.916 20 C 191.663 20, 187.664 23.811, 183.031 28.469 M 193.407 21.440 C 193.938 22.963, 192.091 25.429, 184.791 32.940 L 175.500 42.500 185.469 33 C 190.951 27.775, 195.527 23.499, 195.637 23.498 C 195.747 23.498, 195.138 22.598, 194.284 21.498 C 192.796 19.584, 192.759 19.582, 193.407 21.440 M 173.437 27.250 L 170.500 30.500 173.750 27.563 C 175.537 25.948, 177 24.485, 177 24.313 C 177 23.540, 176.175 24.221, 173.437 27.250 M 186.500 34 L 177.542 43 181.021 42.864 C 183.608 42.763, 183.887 42.612, 182.111 42.276 C 179.906 41.859, 180.325 41.218, 187.537 33.962 C 194.547 26.911, 195.484 26.276, 196.627 27.800 C 197.764 29.318, 197.840 29.259, 197.334 27.250 C 197.022 26.012, 196.472 25, 196.113 25 C 195.753 25, 191.427 29.050, 186.500 34 M 195.500 39 C 193.656 40.925, 191.528 42.054, 189.563 42.150 L 186.500 42.300 189.300 42.721 C 191.449 43.044, 193.019 42.312, 196.053 39.571 C 198.227 37.607, 199.639 36, 199.190 36 C 198.741 36, 197.081 37.350, 195.500 39 M 196.980 40.524 C 196.284 41.362, 195.985 42.318, 196.314 42.648 C 197.338 43.672, 200 42.143, 200 40.531 C 200 38.573, 198.602 38.569, 196.980 40.524 M 197.500 41 C 197.160 41.550, 197.359 42, 197.941 42 C 198.523 42, 199 41.550, 199 41 C 199 40.450, 198.802 40, 198.559 40 C 198.316 40, 197.840 40.450, 197.500 41 M 41.872 66.750 C 40.629 68.336, 40.664 68.371, 42.250 67.128 C 43.916 65.821, 44.445 65, 43.622 65 C 43.415 65, 42.627 65.787, 41.872 66.750 M 33.437 74.250 L 30.500 77.500 33.750 74.563 C 35.538 72.948, 37 71.485, 37 71.313 C 37 70.540, 36.175 71.221, 33.437 74.250 M 72.750 72.662 C 73.438 72.940, 74.563 72.940, 75.250 72.662 C 75.938 72.385, 75.375 72.158, 74 72.158 C 72.625 72.158, 72.063 72.385, 72.750 72.662 M 101.500 97 C 101.840 97.550, 102.316 98, 102.559 98 C 102.802 98, 103 97.550, 103 97 C 103 96.450, 102.523 96, 101.941 96 C 101.359 96, 101.160 96.450, 101.500 97 M 144.405 103.250 L 142.500 105.500 144.750 103.595 C 146.864 101.805, 147.455 101, 146.655 101 C 146.465 101, 145.453 102.013, 144.405 103.250 M 131.750 108.662 C 132.438 108.940, 133.563 108.940, 134.250 108.662 C 134.938 108.385, 134.375 108.158, 133 108.158 C 131.625 108.158, 131.063 108.385, 131.750 108.662" stroke="none" fill="#172777" fill-rule="evenodd"/><path d="M 161.510 4.990 C 159.935 6.634, 158.869 8.202, 159.141 8.475 C 159.414 8.747, 161.157 7.402, 163.015 5.485 C 164.872 3.568, 165.938 2, 165.383 2 C 164.828 2, 163.085 3.345, 161.510 4.990 M 164.971 10.750 L 158.500 17.500 165.250 11.029 C 171.520 5.018, 172.457 4, 171.721 4 C 171.568 4, 168.530 7.037, 164.971 10.750 M 167.980 16.750 L 158.500 26.500 168.250 17.020 C 173.613 11.806, 178 7.418, 178 7.270 C 178 6.545, 176.785 7.694, 167.980 16.750 M 174.031 18.469 C 169.397 23.127, 165.830 27.163, 166.105 27.438 C 166.379 27.713, 170.621 23.901, 175.531 18.969 C 180.441 14.036, 184.008 10, 183.457 10 C 182.906 10, 178.664 13.811, 174.031 18.469 M 178.978 22.750 L 170.500 31.500 179.250 23.022 C 184.063 18.359, 188 14.422, 188 14.272 C 188 13.544, 186.852 14.623, 178.978 22.750 M 182.978 27.750 L 174.500 36.500 183.250 28.022 C 188.063 23.359, 192 19.422, 192 19.272 C 192 18.544, 190.852 19.623, 182.978 27.750 M 185.341 33.250 C 178.211 40.482, 176.082 43.296, 175.584 46.149 C 175.234 48.155, 174.086 50.892, 173.034 52.230 L 171.120 54.663 179.521 63.021 C 187.581 71.039, 188 71.310, 189.815 69.668 C 192.720 67.038, 196.767 58.993, 198.467 52.465 C 200.644 44.106, 200.511 43, 197.326 43 L 194.651 43 197.072 40.250 L 199.493 37.500 196.442 40.250 C 194.209 42.263, 192.340 43, 189.474 43 L 185.558 43 192.029 36.250 L 198.500 29.500 191.475 36.250 C 185.766 41.736, 183.846 43, 181.225 43 C 179.451 43, 178 42.601, 178 42.114 C 178 41.626, 182.073 37.351, 187.051 32.614 C 192.030 27.876, 195.733 24, 195.282 24 C 194.830 24, 190.357 28.163, 185.341 33.250 M 87.752 33.716 C 85.745 34.020, 84.844 34.856, 84.409 36.816 C 82.970 43.307, 83.020 43.246, 81.082 40.853 C 78.832 38.074, 75.497 38.969, 76.324 42.130 C 76.717 43.636, 76.054 44.925, 73.993 46.659 C 71.014 49.166, 67 58.253, 67 62.490 C 67 69.047, 72.437 73.304, 77.914 71.036 C 80.916 69.792, 81.556 68.584, 84.425 58.750 C 86.082 53.071, 86.148 53, 89.851 53 C 94.077 53, 96 51.590, 96 48.491 C 96 47.331, 96.610 45.548, 97.356 44.528 C 98.504 42.958, 98.475 41.932, 97.165 37.837 C 95.518 32.686, 95.269 32.577, 87.752 33.716 M 153.504 85.987 C 152.681 88.579, 153.114 89.034, 158.695 91.443 L 162.890 93.254 167.275 90.685 C 169.686 89.272, 172.241 87.414, 172.952 86.558 C 174.099 85.175, 173.528 84.999, 167.872 84.989 C 164.368 84.983, 159.859 84.707, 157.854 84.375 C 154.697 83.853, 154.113 84.069, 153.504 85.987 M 177.571 148.250 C 176.173 149.488, 173.731 153.112, 172.143 156.304 C 170.166 160.276, 169.067 161.617, 168.659 160.554 C 167.888 158.543, 166.121 158.580, 163.829 160.655 C 162.272 162.064, 162 162.087, 162 160.810 C 162 158.800, 158.790 156, 156.486 156 C 155.464 156, 153.634 156.935, 152.418 158.077 L 150.206 160.155 149.023 156.570 C 146.793 149.811, 142.167 149.757, 138.036 156.441 C 135.999 159.737, 135.977 160.035, 137.573 162.470 C 138.781 164.315, 139.120 166.402, 138.781 169.922 L 138.312 174.812 141.615 171.309 C 145.419 167.276, 146.932 167.369, 148.431 171.727 L 149.500 174.833 152.500 172.422 C 156.626 169.105, 161.652 169.142, 163.182 172.500 C 164.591 175.592, 164.643 175.591, 169.518 172.366 C 178.176 166.639, 188.213 155.095, 187.224 152 C 186.514 149.774, 182.838 146, 181.381 146 C 180.683 146, 178.968 147.012, 177.571 148.250" stroke="none" fill="#409de2" fill-rule="evenodd"/><path d="M 148.746 3.086 C 144.286 4.137, 135.839 8.284, 134.244 10.206 C 132.872 11.860, 133.333 15.596, 134.867 15.255 C 135.473 15.121, 137.438 15.906, 139.234 17.001 L 142.500 18.993 134.323 18.996 C 126.679 19, 126.010 19.172, 124.070 21.638 C 120.681 25.946, 117.888 36.608, 118.080 44.500 C 118.284 52.840, 122.536 63.266, 128.364 69.718 C 130.364 71.931, 132 74.250, 132 74.871 C 132 75.492, 132.507 76, 133.127 76 C 133.747 76, 137.010 77.354, 140.377 79.010 C 148.729 83.115, 157.247 84.521, 165.250 83.117 C 172.330 81.874, 182.492 77.234, 185.765 73.751 L 187.959 71.415 179.594 63.093 L 171.228 54.771 168.291 56.943 C 163.278 60.649, 151 60.401, 151 56.594 C 151 55.794, 150.033 54.995, 148.850 54.820 C 147.668 54.644, 145.781 53.263, 144.657 51.752 C 142.679 49.093, 142.672 48.960, 144.458 47.655 C 145.736 46.720, 145.949 46.087, 145.151 45.594 C 144.518 45.202, 143.574 45.145, 143.053 45.468 C 141.330 46.532, 142.561 37.437, 144.615 33.920 C 146.789 30.197, 153.168 26.043, 156.750 26.016 C 158.957 26, 159 25.773, 159 14 L 159 2 155.750 2.100 C 153.963 2.156, 150.811 2.599, 148.746 3.086 M 83.264 23.718 C 84.784 23.947, 87.034 23.941, 88.264 23.704 C 89.494 23.467, 88.250 23.279, 85.500 23.286 C 82.750 23.294, 81.744 23.488, 83.264 23.718 M 94.591 32.674 C 95.190 33.128, 96.372 35.552, 97.215 38.061 C 98.524 41.950, 98.547 42.899, 97.375 44.502 C 96.619 45.536, 96 47.331, 96 48.491 C 96 51.122, 94.227 52.965, 91.550 53.116 C 89.760 53.217, 89.731 53.292, 91.324 53.704 C 93.636 54.301, 97 51.320, 97 48.674 C 97 47.565, 97.674 45.913, 98.498 45.002 C 99.832 43.528, 99.796 42.759, 98.172 37.982 C 97.169 35.031, 95.708 32.443, 94.924 32.232 C 93.997 31.982, 93.881 32.136, 94.591 32.674 M 86.813 33.683 C 87.534 33.972, 88.397 33.936, 88.729 33.604 C 89.061 33.272, 88.471 33.036, 87.417 33.079 C 86.252 33.127, 86.015 33.364, 86.813 33.683 M 28.750 40.662 C 29.438 40.940, 30.563 40.940, 31.250 40.662 C 31.938 40.385, 31.375 40.158, 30 40.158 C 28.625 40.158, 28.063 40.385, 28.750 40.662 M 145.597 40.844 C 145.251 41.404, 145.455 42.163, 146.050 42.531 C 147.588 43.481, 148.580 42.180, 147.296 40.896 C 146.578 40.178, 146.019 40.161, 145.597 40.844 M 151.639 40.694 C 150.513 41.820, 150.954 43, 152.500 43 C 153.325 43, 154 42.577, 154 42.059 C 154 40.798, 152.438 39.895, 151.639 40.694 M 156.597 40.844 C 156.251 41.404, 156.455 42.163, 157.050 42.531 C 158.588 43.481, 159.580 42.180, 158.296 40.896 C 157.578 40.178, 157.019 40.161, 156.597 40.844 M 47 45.441 C 47 46.234, 47.445 47.157, 47.989 47.493 C 48.555 47.843, 48.723 47.442, 48.382 46.552 C 47.875 45.231, 48.947 45, 55.579 45 C 62.233 45, 63.746 45.329, 65.936 47.250 L 68.500 49.500 66.076 46.750 C 63.796 44.164, 63.154 44, 55.326 44 C 48.743 44, 47 44.302, 47 45.441 M 148.597 45.844 C 148.251 46.404, 148.455 47.163, 149.050 47.531 C 150.588 48.481, 151.580 47.180, 150.296 45.896 C 149.578 45.178, 149.019 45.161, 148.597 45.844 M 154 46.500 C 154 47.325, 154.450 48, 155 48 C 155.550 48, 156 47.325, 156 46.500 C 156 45.675, 155.550 45, 155 45 C 154.450 45, 154 45.675, 154 46.500 M 145.694 50.639 C 144.895 51.438, 145.798 53, 147.059 53 C 147.577 53, 148 52.325, 148 51.500 C 148 49.954, 146.820 49.513, 145.694 50.639 M 151.150 50.950 C 151.370 51.610, 151.876 52.116, 152.275 52.075 C 153.471 51.951, 153.239 50.580, 151.950 50.150 C 151.290 49.930, 150.930 50.290, 151.150 50.950 M 156.694 50.639 C 155.895 51.438, 156.798 53, 158.059 53 C 158.577 53, 159 52.325, 159 51.500 C 159 49.954, 157.820 49.513, 156.694 50.639 M 28 52 L 5.500 52.558 28.250 52.779 C 42.897 52.921, 51 52.644, 51 52 C 51 51.450, 50.888 51.099, 50.750 51.221 C 50.612 51.343, 40.375 51.693, 28 52 M 47 57 C 47 59.473, 46.592 60, 44.674 60 C 43.395 60, 41.285 58.867, 39.984 57.483 L 37.619 54.966 33.810 58.686 C 30.011 62.395, 30.001 62.427, 30.201 69.953 L 30.402 77.500 30.740 69.908 C 31.055 62.846, 31.307 62.095, 34.352 59.144 L 37.625 55.972 39.987 58.486 C 41.429 60.021, 43.449 61, 45.174 61 C 47.737 61, 48 60.674, 48 57.500 C 48 55.575, 47.775 54, 47.500 54 C 47.225 54, 47 55.350, 47 57 M 154 56 C 154 56.550, 154.450 57, 155 57 C 155.550 57, 156 56.550, 156 56 C 156 55.450, 155.550 55, 155 55 C 154.450 55, 154 55.450, 154 56 M 118.639 59.694 C 117.513 60.820, 117.954 62, 119.500 62 C 120.325 62, 121 61.577, 121 61.059 C 121 59.798, 119.438 58.895, 118.639 59.694 M 66.195 62.500 C 66.215 64.150, 66.439 64.704, 66.693 63.731 C 66.947 62.758, 66.930 61.408, 66.656 60.731 C 66.382 60.054, 66.175 60.850, 66.195 62.500 M 121 65.500 C 121 66.417, 121.484 67.005, 122.075 66.808 C 122.666 66.611, 123.150 66.023, 123.150 65.500 C 123.150 64.977, 122.666 64.389, 122.075 64.192 C 121.484 63.995, 121 64.583, 121 65.500 M 118.192 70.075 C 118.389 70.666, 118.977 71.150, 119.500 71.150 C 120.023 71.150, 120.611 70.666, 120.808 70.075 C 121.005 69.484, 120.417 69, 119.500 69 C 118.583 69, 117.995 69.484, 118.192 70.075 M 124 70.500 C 124 71.325, 124.450 72, 125 72 C 125.550 72, 126 71.325, 126 70.500 C 126 69.675, 125.550 69, 125 69 C 124.450 69, 124 69.675, 124 70.500 M 121 75 C 121 75.550, 121.675 76, 122.500 76 C 123.325 76, 124 75.550, 124 75 C 124 74.450, 123.325 74, 122.500 74 C 121.675 74, 121 74.450, 121 75 M 126 75 C 126 75.550, 126.675 76, 127.500 76 C 128.325 76, 129 75.550, 129 75 C 129 74.450, 128.325 74, 127.500 74 C 126.675 74, 126 74.450, 126 75 M 5.750 87.706 C 7.473 88.038, 8 88.826, 8 91.070 C 8 93.251, 8.471 94, 9.845 94 C 10.860 94, 12.505 94.900, 13.500 96 C 14.495 97.100, 15.769 98, 16.329 98 C 16.890 98, 16.292 96.875, 15 95.500 C 13.708 94.125, 11.830 93, 10.826 93 C 9.464 93, 9 92.238, 9 90 C 9 87.361, 8.669 87.016, 6.250 87.136 C 3.892 87.253, 3.821 87.334, 5.750 87.706 M 177.710 88.623 C 177.320 89.014, 177 93.308, 177 98.167 L 177 107 173.500 107 L 170 107 170 113.500 L 170 120 163.500 120 L 157 120 157 132 L 157 144 153.617 144 C 151.074 144, 150.103 143.503, 149.710 142 C 149.361 140.666, 148.346 140, 146.660 140 C 144.646 140, 144.069 139.441, 143.816 137.250 C 143.503 134.525, 143.425 134.497, 135.250 134.210 C 130.017 134.025, 127 134.300, 127 134.960 C 127 135.593, 130.126 136, 135 136 C 142.867 136, 143 136.042, 143 138.500 C 143 140.611, 143.467 141, 146 141 C 148.333 141, 149 141.444, 149 143 C 149 144.704, 149.667 145, 153.500 145 L 158 145 158 133 L 158 121 164.500 121 L 171 121 171 114.500 L 171 108 174.500 108 L 178 108 178 98.500 L 178 89 183.500 89 L 189 89 189 93.500 C 189 97.534, 189.233 97.988, 191.250 97.884 C 192.856 97.801, 193.015 97.640, 191.804 97.321 C 190.621 97.009, 190.017 95.611, 189.804 92.687 L 189.500 88.500 183.960 88.206 C 180.913 88.045, 178.101 88.232, 177.710 88.623 M 94.624 122.539 C 93.659 125.053, 93.943 125.702, 95.122 123.675 C 95.706 122.671, 95.973 121.639, 95.715 121.382 C 95.458 121.124, 94.966 121.645, 94.624 122.539 M 2 123.059 C 2 123.641, 2.450 123.840, 3 123.500 C 3.550 123.160, 4 122.684, 4 122.441 C 4 122.198, 3.550 122, 3 122 C 2.450 122, 2 122.477, 2 123.059 M 45.015 130.446 C 43.877 134.512, 43.960 135.200, 45.993 138.489 C 48.066 141.842, 48.311 141.965, 49.614 140.293 C 50.880 138.669, 50.926 138.736, 50.101 141 C 48.642 145.004, 41.928 160.405, 41.420 160.913 C 41.165 161.168, 41.079 160.329, 41.228 159.048 C 41.378 157.768, 40.909 156.511, 40.187 156.256 C 39.208 155.909, 38.954 156.872, 39.187 160.051 C 39.500 164.305, 39.508 164.313, 46 166.748 C 55.266 170.225, 63.861 171.828, 76.690 172.474 C 85.945 172.940, 89.056 173.533, 94.690 175.903 C 106.794 180.995, 106.409 181.014, 105.645 175.366 C 104.887 169.762, 101.296 154.455, 100.047 151.500 C 99.582 150.400, 97.281 145.338, 94.935 140.250 L 90.668 131 78.462 131 C 68.737 131, 64.253 130.492, 56.401 128.500 C 50.981 127.125, 46.482 126, 46.403 126 C 46.324 126, 45.700 128.001, 45.015 130.446 M 10 127.313 C 10 127.485, 11.462 128.948, 13.250 130.563 L 16.500 133.500 13.563 130.250 C 10.825 127.221, 10 126.540, 10 127.313 M 113.843 135.593 L 114.185 141 120.843 140.807 L 127.500 140.615 121.250 140.260 L 115 139.905 115 135.511 C 115 133.095, 114.662 130.908, 114.250 130.652 C 113.838 130.396, 113.654 132.619, 113.843 135.593 M 21.507 141.989 C 21.157 142.555, 21.558 142.723, 22.448 142.382 C 24.180 141.717, 24.497 141, 23.059 141 C 22.541 141, 21.843 141.445, 21.507 141.989 M 19.500 151 C 20.495 152.100, 21.535 153, 21.810 153 C 22.085 153, 21.495 152.100, 20.500 151 C 19.505 149.900, 18.465 149, 18.190 149 C 17.915 149, 18.505 149.900, 19.500 151 M 102.813 151.683 C 103.534 151.972, 104.397 151.936, 104.729 151.604 C 105.061 151.272, 104.471 151.036, 103.417 151.079 C 102.252 151.127, 102.015 151.364, 102.813 151.683 M 108.500 154 C 109.495 155.100, 110.535 156, 110.810 156 C 111.085 156, 110.495 155.100, 109.500 154 C 108.505 152.900, 107.465 152, 107.190 152 C 106.915 152, 107.505 152.900, 108.500 154 M 132.813 160.683 C 133.534 160.972, 134.397 160.936, 134.729 160.604 C 135.061 160.272, 134.471 160.036, 133.417 160.079 C 132.252 160.127, 132.015 160.364, 132.813 160.683 M 36.500 162 C 36.160 162.550, 36.359 163, 36.941 163 C 37.523 163, 38 162.550, 38 162 C 38 161.450, 37.802 161, 37.559 161 C 37.316 161, 36.840 161.450, 36.500 162 M 128.872 162.750 C 127.629 164.336, 127.664 164.371, 129.250 163.128 C 130.916 161.821, 131.445 161, 130.622 161 C 130.415 161, 129.627 161.787, 128.872 162.750 M 117.507 163.989 C 117.157 164.555, 117.558 164.723, 118.448 164.382 C 120.180 163.717, 120.497 163, 119.059 163 C 118.541 163, 117.843 163.445, 117.507 163.989 M 114.063 167.950 C 114.020 170.318, 114.323 171.077, 115.030 170.370 C 115.713 169.687, 115.734 168.522, 115.094 166.920 C 114.185 164.646, 114.123 164.708, 114.063 167.950 M 138.272 169 C 138.272 171.475, 138.467 172.488, 138.706 171.250 C 138.944 170.012, 138.944 167.988, 138.706 166.750 C 138.467 165.512, 138.272 166.525, 138.272 169 M 145 168.393 C 145 168.609, 145.698 169.054, 146.552 169.382 C 147.442 169.723, 147.843 169.555, 147.493 168.989 C 146.906 168.038, 145 167.583, 145 168.393 M 141.405 171.250 L 139.500 173.500 141.750 171.595 C 142.988 170.547, 144 169.535, 144 169.345 C 144 168.545, 143.195 169.136, 141.405 171.250 M 154.507 170.989 C 154.157 171.555, 154.558 171.723, 155.448 171.382 C 157.180 170.717, 157.497 170, 156.059 170 C 155.541 170, 154.843 170.445, 154.507 170.989 M 148.116 174.424 L 148 177.349 150.500 175 C 153.403 172.273, 153.934 170.844, 151.088 173.420 C 149.272 175.064, 149.152 175.059, 148.704 173.325 C 148.408 172.181, 148.189 172.591, 148.116 174.424 M 117.813 182.683 C 118.534 182.972, 119.397 182.936, 119.729 182.604 C 120.061 182.272, 119.471 182.036, 118.417 182.079 C 117.252 182.127, 117.015 182.364, 117.813 182.683 M 140.813 182.683 C 141.534 182.972, 142.397 182.936, 142.729 182.604 C 143.061 182.272, 142.471 182.036, 141.417 182.079 C 140.252 182.127, 140.015 182.364, 140.813 182.683" stroke="none" fill="#ccf2ea" fill-rule="evenodd"/></svg>