<svg xmlns="http://www.w3.org/2000/svg" width="40" height="52" viewBox="0 0 40 52" version="1.1"><path d="M 13.469 6.250 L 7.500 12.500 13.750 6.531 C 19.556 0.987, 20.458 0, 19.719 -0 C 19.564 -0, 16.751 2.813, 13.469 6.250 M 14.958 9.750 L 10.500 14.500 15.257 10.035 L 20.013 5.571 26.503 12.003 C 32.826 18.270, 33.038 18.386, 34.747 16.522 C 36.423 14.694, 36.421 14.669, 34.696 15.972 C 33.077 17.195, 32.251 16.700, 26.669 11.167 C 23.246 7.775, 20.214 5, 19.931 5 C 19.648 5, 17.410 7.138, 14.958 9.750 M 28.982 21.250 C 38.718 31.235, 40 32.454, 40 31.732 C 40 31.585, 35.163 26.747, 29.250 20.982 L 18.500 10.500 28.982 21.250 M 13.785 23.284 C 21.480 31.011, 22.819 32.807, 21.766 33.986 C 20.678 35.204, 20.755 35.210, 22.309 34.030 C 23.982 32.761, 23.416 31.951, 14.829 23.328 C 9.720 18.198, 5.315 14, 5.040 14 C 4.765 14, 8.700 18.178, 13.785 23.284 M 12.500 16 C 12.840 16.550, 13.343 17, 13.618 17 C 13.893 17, 13.840 16.550, 13.500 16 C 13.160 15.450, 12.657 15, 12.382 15 C 12.107 15, 12.160 15.450, 12.500 16 M 3.500 19 C 4.495 20.100, 5.535 21, 5.810 21 C 6.085 21, 5.495 20.100, 4.500 19 C 3.505 17.900, 2.465 17, 2.190 17 C 1.915 17, 2.505 17.900, 3.500 19 M 17.160 18.308 C 16.324 19.315, 18.192 21.671, 25.287 28.558 L 34.500 37.500 25.735 28.465 C 18.857 21.376, 17.231 19.169, 18.185 18.215 C 18.853 17.547, 19.140 17, 18.822 17 C 18.505 17, 17.756 17.588, 17.160 18.308 M 9.982 30.250 C 15.747 36.163, 20.585 41, 20.732 41 C 21.454 41, 20.235 39.718, 10.250 29.982 L -0.500 19.500 9.982 30.250 M 35.384 32.726 C 37.046 34.692, 39 34.988, 39 33.274 C 39 32.940, 38.699 32.968, 38.331 33.336 C 37.963 33.703, 36.726 33.216, 35.581 32.252 C 33.505 30.505, 33.505 30.506, 35.384 32.726 M 4.872 35.750 C 3.620 37.348, 3.657 37.377, 5.304 36.083 C 6.940 34.797, 7.710 35.261, 13.562 41.062 L 20.016 47.458 24.758 42.494 L 29.500 37.529 24.743 41.979 L 19.987 46.429 13.717 40.215 C 10.268 36.797, 7.176 34, 6.846 34 C 6.515 34, 5.627 34.788, 4.872 35.750 M 26.500 36 C 26.840 36.550, 27.343 37, 27.618 37 C 27.893 37, 27.840 36.550, 27.500 36 C 27.160 35.450, 26.657 35, 26.382 35 C 26.107 35, 26.160 35.450, 26.500 36 M 25.350 46.019 C 21.967 49.309, 19.506 52, 19.881 52 C 20.256 52, 23.234 49.300, 26.500 46 C 34.184 38.235, 33.340 38.249, 25.350 46.019" stroke="none" fill="#4414b4" fill-rule="evenodd"/><path d="M 13.135 7.167 L 5.770 14.231 14.944 23.444 C 22.939 31.472, 23.919 32.823, 22.564 33.947 C 21.233 35.052, 19.710 34, 11.953 26.618 C 6.972 21.878, 2.497 18, 2.008 18 C -0.749 18, 1.154 20.685, 10.529 30.029 L 20.954 40.418 23.822 37.670 C 26.407 35.194, 26.822 35.080, 28.020 36.524 C 29.169 37.909, 28.719 38.755, 24.682 42.791 L 20.016 47.458 13.519 41.018 C 8.399 35.945, 6.762 34.838, 5.799 35.801 C 4.836 36.764, 6.053 38.511, 11.537 44.037 C 15.365 47.895, 19.005 50.927, 19.627 50.775 C 20.248 50.624, 23.798 47.645, 27.515 44.156 L 34.274 37.812 25.078 28.578 C 17.064 20.531, 16.081 19.177, 17.436 18.053 C 18.767 16.949, 20.285 17.995, 28.008 25.345 C 34.185 31.223, 37.526 33.735, 38.612 33.319 C 39.808 32.860, 37.597 30.108, 29.628 22.140 L 19.058 11.570 16.184 14.324 C 13.593 16.806, 13.178 16.920, 11.980 15.476 C 10.831 14.091, 11.281 13.245, 15.318 9.209 L 19.984 4.542 26.481 10.982 C 31.627 16.082, 33.235 17.165, 34.210 16.190 C 35.186 15.214, 33.888 13.413, 27.971 7.530 L 20.500 0.102 13.135 7.167" stroke="none" fill="#5c14ec" fill-rule="evenodd"/></svg>