<svg xmlns="http://www.w3.org/2000/svg" width="40" height="52" viewBox="0 0 40 52" version="1.1"><path d="M 12.245 7.253 L 5.003 14.544 13.964 23.464 C 21.076 30.543, 22.692 32.667, 21.791 33.752 C 20.875 34.855, 18.892 33.361, 11.500 26 C 3.348 17.882, 2.196 17.059, 0.999 18.501 C -0.180 19.922, 0.929 21.398, 10.042 30.542 L 20.428 40.964 23.051 38.451 C 24.846 36.732, 26.252 36.159, 27.501 36.639 C 28.709 37.102, 29.098 36.967, 28.648 36.239 C 27.571 34.497, 29.638 33.859, 31.009 35.511 C 31.995 36.699, 31.984 37, 30.956 37 C 30.247 37, 29.933 37.266, 30.258 37.592 C 30.584 37.917, 31.554 37.790, 32.414 37.308 C 33.678 36.601, 32.359 34.823, 25.525 28.025 C 18.819 21.354, 17.308 19.334, 18.208 18.249 C 19.125 17.145, 21.106 18.637, 28.500 26 C 36.652 34.118, 37.804 34.941, 39.001 33.499 C 40.180 32.078, 39.071 30.602, 29.958 21.458 L 19.572 11.036 16.949 13.549 C 15.255 15.172, 13.722 15.830, 12.622 15.408 C 11.685 15.049, 10.990 15.147, 11.078 15.627 C 11.456 17.699, 10.896 18.158, 9.453 16.961 C 8.210 15.930, 8.161 15.498, 9.203 14.773 C 10.040 14.189, 9.614 14.104, 8 14.532 C 6.033 15.054, 6.886 13.799, 12 8.650 C 16.491 4.128, 19.118 2.208, 20.500 2.439 C 21.600 2.623, 22.376 3.308, 22.225 3.961 C 22.074 4.614, 22.351 4.901, 22.842 4.598 C 23.332 4.295, 24.495 4.890, 25.427 5.920 C 27.917 8.671, 25.145 9.332, 22.232 6.682 L 19.965 4.618 15.672 8.832 C 13.310 11.149, 10.996 12.697, 10.529 12.273 C 10.062 11.848, 10.029 12.105, 10.457 12.844 C 11.037 13.847, 12.344 13.097, 15.623 9.879 L 20.013 5.571 26.452 11.953 C 32.062 17.512, 33.099 18.163, 34.502 16.998 C 35.936 15.809, 35.315 14.858, 28.881 8.380 C 24.903 4.376, 21.316 1.305, 20.910 1.556 C 20.503 1.807, 20.017 1.551, 19.829 0.987 C 19.641 0.424, 16.228 3.243, 12.245 7.253 M 26.201 8.855 C 25.244 9.462, 25.978 10.651, 28.991 13.373 C 34.374 18.236, 36.376 16.993, 31.388 11.885 C 29.301 9.748, 27.573 8.007, 27.547 8.015 C 27.521 8.024, 26.915 8.401, 26.201 8.855 M 29 11.378 C 29 11.585, 29.788 12.373, 30.750 13.128 C 32.336 14.371, 32.371 14.336, 31.128 12.750 C 29.821 11.084, 29 10.555, 29 11.378 M 17.368 14.155 C 16.341 15.296, 14.407 16.648, 13.070 17.158 C 10.685 18.070, 10.765 18.213, 17.320 24.819 C 20.994 28.521, 24 31.909, 24 32.347 C 24 32.785, 23.312 33.830, 22.472 34.671 C 21.344 35.799, 20.600 35.913, 19.630 35.108 C 18.907 34.508, 18.020 34.238, 17.658 34.509 C 17.296 34.779, 17.226 34.699, 17.502 34.331 C 18.289 33.283, 14.854 29.972, 13.712 30.678 C 13.150 31.025, 12.965 30.866, 13.299 30.325 C 14.144 28.957, 3.512 18.658, 1.850 19.235 C 0.992 19.533, 4.119 23.399, 10.441 29.856 L 20.382 40.008 22.941 37.651 C 24.348 36.354, 26.355 34.990, 27.401 34.620 C 29.047 34.037, 28.376 32.973, 22.401 26.683 C 18.605 22.688, 15.050 19.636, 14.500 19.901 C 13.950 20.167, 14.127 19.612, 14.893 18.668 C 15.658 17.724, 16.517 17.184, 16.800 17.467 C 17.084 17.751, 17.880 17.515, 18.569 16.943 C 19.438 16.221, 20.023 16.229, 20.480 16.968 C 20.842 17.553, 21.627 17.731, 22.224 17.362 C 22.821 16.993, 23.037 17.131, 22.704 17.670 C 21.844 19.061, 36.485 33.349, 38.143 32.737 C 39.019 32.414, 35.904 28.660, 29.368 22.159 C 19.250 12.095, 19.234 12.084, 17.368 14.155 M 15.500 22 C 15.840 22.550, 16.343 23, 16.618 23 C 16.893 23, 16.840 22.550, 16.500 22 C 16.160 21.450, 15.657 21, 15.382 21 C 15.107 21, 15.160 21.450, 15.500 22 M 26.500 22 C 26.840 22.550, 27.343 23, 27.618 23 C 27.893 23, 27.840 22.550, 27.500 22 C 27.160 21.450, 26.657 21, 26.382 21 C 26.107 21, 26.160 21.450, 26.500 22 M 19.500 26 C 19.840 26.550, 20.343 27, 20.618 27 C 20.893 27, 20.840 26.550, 20.500 26 C 20.160 25.450, 19.657 25, 19.382 25 C 19.107 25, 19.160 25.450, 19.500 26 M 23.500 30 C 23.840 30.550, 24.343 31, 24.618 31 C 24.893 31, 24.840 30.550, 24.500 30 C 24.160 29.450, 23.657 29, 23.382 29 C 23.107 29, 23.160 29.450, 23.500 30 M 25 32.500 C 25 32.775, 25.225 33, 25.500 33 C 25.775 33, 26 32.775, 26 32.500 C 26 32.225, 25.775 32, 25.500 32 C 25.225 32, 25 32.225, 25 32.500 M 5.158 35.309 C 4.323 36.316, 5.912 38.448, 12.043 44.543 L 20.015 52.468 27.257 44.994 L 34.500 37.520 27.875 43.858 C 23.414 48.125, 20.637 50.062, 19.375 49.788 C 18.344 49.564, 17.650 48.733, 17.833 47.941 C 18.017 47.148, 17.828 46.838, 17.414 47.252 C 16.381 48.286, 12.894 44.981, 13.678 43.712 C 14.025 43.150, 13.850 42.975, 13.288 43.322 C 12.284 43.942, 8.357 40.405, 8.650 39.145 C 8.732 38.790, 8.438 38.598, 7.996 38.718 C 6.606 39.095, 4.777 36.256, 5.944 35.534 C 6.517 35.180, 9.158 37.053, 11.812 39.695 C 20.106 47.951, 19.426 47.747, 24.246 43.431 C 26.586 41.336, 28.668 39.145, 28.873 38.561 C 29.078 37.977, 27.163 39.509, 24.616 41.965 L 19.987 46.429 13.717 40.215 C 10.268 36.797, 7.176 34, 6.846 34 C 6.515 34, 5.756 34.589, 5.158 35.309 M 8 39.500 C 8 39.775, 8.225 40, 8.500 40 C 8.775 40, 9 39.775, 9 39.500 C 9 39.225, 8.775 39, 8.500 39 C 8.225 39, 8 39.225, 8 39.500" stroke="none" fill="#f4f4f4" fill-rule="evenodd"/><path d="M 20.354 1.302 C 20.739 2.416, 20.582 2.859, 19.941 2.464 C 19.371 2.111, 16.079 4.582, 12.625 7.954 L 6.345 14.085 15.172 22.724 C 20.028 27.475, 24 31.763, 24 32.252 C 24 32.742, 23.312 33.830, 22.472 34.671 C 21.344 35.799, 20.600 35.913, 19.630 35.108 C 18.907 34.508, 17.948 34.351, 17.498 34.759 C 17.048 35.166, 16.966 34.998, 17.316 34.384 C 18.103 33.004, 14.653 29.709, 13.509 30.748 C 13.052 31.162, 12.956 31.014, 13.293 30.420 C 14.121 28.966, 3.559 18.642, 1.850 19.235 C 0.992 19.533, 4.119 23.399, 10.441 29.856 L 20.382 40.008 22.941 37.651 C 26.970 33.939, 28.718 33.696, 28.600 36.866 C 28.532 38.684, 27.124 40.796, 24.246 43.396 C 19.426 47.751, 20.109 47.955, 11.812 39.695 C 9.158 37.053, 6.498 35.192, 5.902 35.560 C 5.235 35.973, 6.259 37.705, 8.572 40.074 C 10.636 42.188, 12.771 43.641, 13.317 43.304 C 13.863 42.967, 14.025 43.150, 13.678 43.712 C 12.894 44.981, 16.381 48.286, 17.414 47.252 C 17.828 46.838, 18.017 47.148, 17.833 47.941 C 17.650 48.733, 18.344 49.564, 19.375 49.788 C 20.645 50.063, 23.242 48.220, 27.422 44.077 L 33.595 37.960 24.547 28.725 C 19.571 23.647, 15.050 19.692, 14.500 19.938 C 13.950 20.183, 14.113 19.627, 14.863 18.703 C 15.613 17.778, 16.595 17.249, 17.044 17.527 C 17.494 17.805, 18.158 17.553, 18.520 16.968 C 18.977 16.229, 19.562 16.221, 20.431 16.943 C 21.120 17.515, 22.052 17.649, 22.502 17.241 C 22.952 16.834, 23.046 16.983, 22.710 17.574 C 21.869 19.053, 36.438 33.366, 38.143 32.737 C 39.019 32.414, 35.908 28.663, 29.378 22.168 L 19.255 12.100 17.042 14.456 C 15.824 15.751, 13.922 17.049, 12.815 17.338 C 11.708 17.628, 11.043 17.624, 11.337 17.329 C 11.632 17.035, 11.423 15.613, 10.874 14.168 C 10.325 12.724, 10.214 11.880, 10.627 12.294 C 11.040 12.707, 13.307 11.153, 15.664 8.839 L 19.949 4.634 26.459 10.885 C 34.797 18.892, 37.451 18.035, 29.428 9.927 C 26.253 6.719, 23.214 4.368, 22.674 4.702 C 22.133 5.036, 21.946 4.897, 22.257 4.393 C 22.568 3.890, 22.127 2.583, 21.277 1.489 C 19.955 -0.211, 19.821 -0.238, 20.354 1.302 M 25.333 8.667 C 25.700 9.033, 26.300 9.033, 26.667 8.667 C 27.033 8.300, 26.733 8, 26 8 C 25.267 8, 24.967 8.300, 25.333 8.667 M 29 11.378 C 29 11.585, 29.788 12.373, 30.750 13.128 C 32.336 14.371, 32.371 14.336, 31.128 12.750 C 29.821 11.084, 29 10.555, 29 11.378 M 8.333 14.667 C 8.700 15.033, 9.300 15.033, 9.667 14.667 C 10.033 14.300, 9.733 14, 9 14 C 8.267 14, 7.967 14.300, 8.333 14.667 M 15.500 22 C 15.840 22.550, 16.343 23, 16.618 23 C 16.893 23, 16.840 22.550, 16.500 22 C 16.160 21.450, 15.657 21, 15.382 21 C 15.107 21, 15.160 21.450, 15.500 22 M 26.500 22 C 26.840 22.550, 27.343 23, 27.618 23 C 27.893 23, 27.840 22.550, 27.500 22 C 27.160 21.450, 26.657 21, 26.382 21 C 26.107 21, 26.160 21.450, 26.500 22 M 19.500 26 C 19.840 26.550, 20.343 27, 20.618 27 C 20.893 27, 20.840 26.550, 20.500 26 C 20.160 25.450, 19.657 25, 19.382 25 C 19.107 25, 19.160 25.450, 19.500 26 M 23.500 30 C 23.840 30.550, 24.343 31, 24.618 31 C 24.893 31, 24.840 30.550, 24.500 30 C 24.160 29.450, 23.657 29, 23.382 29 C 23.107 29, 23.160 29.450, 23.500 30 M 25 32.500 C 25 32.775, 25.225 33, 25.500 33 C 25.775 33, 26 32.775, 26 32.500 C 26 32.225, 25.775 32, 25.500 32 C 25.225 32, 25 32.225, 25 32.500 M 30.333 37.667 C 30.700 38.033, 31.300 38.033, 31.667 37.667 C 32.033 37.300, 31.733 37, 31 37 C 30.267 37, 29.967 37.300, 30.333 37.667 M 8.500 39 C 8.840 39.550, 9.343 40, 9.618 40 C 9.893 40, 9.840 39.550, 9.500 39 C 9.160 38.450, 8.657 38, 8.382 38 C 8.107 38, 8.160 38.450, 8.500 39" stroke="none" fill="#fcfcfc" fill-rule="evenodd"/></svg>